<svg xmlns="http://www.w3.org/2000/svg" xmlns:xlink="http://www.w3.org/1999/xlink" width="128.176" height="36" viewBox="0 0 128.176 36"><defs><linearGradient id="a" x2="1" y2="1" gradientUnits="objectBoundingBox"><stop offset="0" stop-color="#f85032"/><stop offset="1" stop-color="#e73827"/></linearGradient><linearGradient id="b" x2="1" y2="1" gradientUnits="objectBoundingBox"><stop offset="0" stop-color="#f96"/><stop offset="1" stop-color="#ff5e62"/></linearGradient><linearGradient id="c" x2="1" y2="1" gradientUnits="objectBoundingBox"><stop offset="0" stop-color="#fdb430"/><stop offset="1" stop-color="#f37335"/></linearGradient></defs><g transform="translate(-46 -13)"><g transform="translate(96.38 22.368)"><path d="M69.9,20a7.62,7.62,0,0,1-2.769-.535V15.117a4.715,4.715,0,0,0,1.779.428c1.616,0,2.678-.923,3.157-2.743a5.055,5.055,0,0,1-2.569.776,3.9,3.9,0,0,1-3.064-1.385,5.2,5.2,0,0,1-1.2-3.525V.281h5V7.452c0,.79.333,1.19.99,1.19.63,0,.95-.441.95-1.311V.281h5V12.187A7.692,7.692,0,0,1,75.3,17.565,7.1,7.1,0,0,1,69.9,20ZM42.743,13.886a6.829,6.829,0,0,1-4.963-2.04,6.7,6.7,0,0,1-2.06-4.917A6.629,6.629,0,0,1,37.779,2a7.048,7.048,0,0,1,5.084-2,6.639,6.639,0,0,1,4.863,2.04A6.72,6.72,0,0,1,49.753,6.93,6.7,6.7,0,0,1,47.7,11.853,6.816,6.816,0,0,1,42.743,13.886Zm-.013-8.95a1.835,1.835,0,0,0-1.365.582A1.983,1.983,0,0,0,40.8,6.943a1.977,1.977,0,0,0,.568,1.418,1.877,1.877,0,0,0,2.729,0,1.976,1.976,0,0,0,.569-1.418,1.982,1.982,0,0,0-.562-1.425A1.847,1.847,0,0,0,42.729,4.937Zm-15.291,8.95a6.827,6.827,0,0,1-4.963-2.04,6.7,6.7,0,0,1-2.06-4.917A6.626,6.626,0,0,1,22.475,2a7.046,7.046,0,0,1,5.083-2,6.637,6.637,0,0,1,4.863,2.04A6.72,6.72,0,0,1,34.448,6.93a6.7,6.7,0,0,1-2.053,4.923A6.819,6.819,0,0,1,27.438,13.886Zm-.013-8.95a1.832,1.832,0,0,0-1.364.582A1.982,1.982,0,0,0,25.5,6.943a1.976,1.976,0,0,0,.569,1.418,1.876,1.876,0,0,0,2.729,0,1.976,1.976,0,0,0,.569-1.418A1.982,1.982,0,0,0,28.8,5.519,1.847,1.847,0,0,0,27.425,4.937ZM11.652,13.62h-5v-7.2a2.573,2.573,0,0,0-.181-1.151.669.669,0,0,0-.635-.321c-.55,0-.83.5-.83,1.485v7.184H0V5.4A5.329,5.329,0,0,1,1.512,1.585,4.918,4.918,0,0,1,5.177.013,5.39,5.39,0,0,1,9.164,1.886,5.805,5.805,0,0,1,13.1.013a4.978,4.978,0,0,1,4.014,1.82A6.307,6.307,0,0,1,18.3,5.967v7.652h-5v-7.2a2.659,2.659,0,0,0-.174-1.151A.653.653,0,0,0,12.5,4.95c-.559,0-.843.5-.843,1.485v7.184Zm51.933,0H50.729L54.8,5.5H50.568V.281h12.4L58.876,8.374h4.709v5.244Z" transform="translate(0.62 0.632)" fill="#ff5a60"/></g><g transform="translate(46 13)"><g fill="#fff" stroke="#ff5a60" stroke-miterlimit="10" stroke-width="1"><rect width="36" height="36" rx="8" stroke="none"/><rect x="0.5" y="0.5" width="35" height="35" rx="7.5" fill="none"/></g><path d="M8.5,16.733H8.443A8.438,8.438,0,0,1,0,8.317,8.449,8.449,0,0,1,8.474,0h.035a8.5,8.5,0,0,1,7.839,5.207,8.273,8.273,0,0,1-1.9,9.119A8.467,8.467,0,0,1,8.5,16.733Z" transform="translate(4.753 5.143)" fill="url(#a)"/><path d="M5.65,11.291A5.689,5.689,0,0,1,0,5.645,5.689,5.689,0,0,1,5.65,0h.017a5.689,5.689,0,0,1,5.65,5.645,5.689,5.689,0,0,1-5.65,5.645H5.65Z" transform="translate(16.564 19.507)" fill="url(#b)"/><path d="M4.511,8.9H4.5A4.493,4.493,0,0,1,0,4.456,4.507,4.507,0,0,1,4.53,0h.014A4.484,4.484,0,0,1,9.049,4.463,4.485,4.485,0,0,1,4.516,8.9Z" transform="translate(22.218 9.845)" fill="url(#c)"/></g></g></svg>