<svg xmlns="http://www.w3.org/2000/svg" width="163.781" height="46" viewBox="0 0 163.781 46"><g transform="translate(-46 -13)"><g transform="translate(111.166 25.778)"><path d="M89.316,25.556a9.736,9.736,0,0,1-3.538-.684V19.316a6.025,6.025,0,0,0,2.273.547c2.064,0,3.422-1.179,4.034-3.5a6.459,6.459,0,0,1-3.282.991,4.98,4.98,0,0,1-3.915-1.769,6.644,6.644,0,0,1-1.538-4.5V.359h6.393V9.522c0,1.009.425,1.521,1.265,1.521.806,0,1.214-.563,1.214-1.675V.359h6.393V15.573a9.829,9.829,0,0,1-2.393,6.872A9.073,9.073,0,0,1,89.316,25.556Zm-34.7-7.812a8.726,8.726,0,0,1-6.342-2.607,8.558,8.558,0,0,1-2.632-6.283,8.47,8.47,0,0,1,2.632-6.3A9.006,9.006,0,0,1,54.769,0a8.483,8.483,0,0,1,6.213,2.607,8.587,8.587,0,0,1,2.59,6.248,8.562,8.562,0,0,1-2.624,6.291A8.71,8.71,0,0,1,54.615,17.744ZM54.6,6.308a2.344,2.344,0,0,0-1.744.744,2.534,2.534,0,0,0-.718,1.82,2.527,2.527,0,0,0,.726,1.812,2.4,2.4,0,0,0,3.488,0,2.525,2.525,0,0,0,.727-1.812,2.532,2.532,0,0,0-.718-1.82A2.361,2.361,0,0,0,54.6,6.308ZM35.06,17.744a8.723,8.723,0,0,1-6.341-2.607,8.557,8.557,0,0,1-2.633-6.283,8.466,8.466,0,0,1,2.633-6.3A9,9,0,0,1,35.214,0a8.481,8.481,0,0,1,6.213,2.607,8.587,8.587,0,0,1,2.59,6.248,8.564,8.564,0,0,1-2.624,6.291A8.713,8.713,0,0,1,35.06,17.744ZM35.043,6.308a2.341,2.341,0,0,0-1.743.744,2.532,2.532,0,0,0-.718,1.82,2.525,2.525,0,0,0,.727,1.812,2.4,2.4,0,0,0,3.487,0,2.525,2.525,0,0,0,.727-1.812,2.532,2.532,0,0,0-.718-1.82A2.361,2.361,0,0,0,35.043,6.308ZM14.889,17.4H8.5v-9.2a3.287,3.287,0,0,0-.231-1.47.855.855,0,0,0-.812-.41c-.7,0-1.06.638-1.06,1.9V17.4H0V6.906a6.81,6.81,0,0,1,1.932-4.88A6.284,6.284,0,0,1,6.615.017,6.887,6.887,0,0,1,11.71,2.41,7.418,7.418,0,0,1,16.735.017a6.361,6.361,0,0,1,5.129,2.325,8.06,8.06,0,0,1,1.521,5.282V17.4H16.992v-9.2a3.4,3.4,0,0,0-.223-1.47.834.834,0,0,0-.8-.41c-.715,0-1.077.638-1.077,1.9V17.4Zm66.359,0H64.82l5.2-10.377h-5.4V.359H80.462L75.231,10.7h6.017v6.7Z" transform="translate(0 0)" fill="#fff"/></g><g transform="translate(46 13)"><g fill="none" stroke="#fff" stroke-miterlimit="10" stroke-width="1"><rect width="46" height="46" rx="8" stroke="none"/><rect x="0.5" y="0.5" width="45" height="45" rx="7.5" fill="none"/></g><path d="M10.858,21.381h-.07A10.782,10.782,0,0,1,0,10.627,10.8,10.8,0,0,1,10.828,0h.045A10.859,10.859,0,0,1,20.89,6.653a10.571,10.571,0,0,1-2.434,11.653,10.819,10.819,0,0,1-7.6,3.075Z" transform="translate(6.074 6.571)" fill="#fff"/><path d="M7.22,14.427A7.27,7.27,0,0,1,0,7.214,7.27,7.27,0,0,1,7.22,0h.022a7.27,7.27,0,0,1,7.22,7.214,7.27,7.27,0,0,1-7.22,7.214H7.22Z" transform="translate(21.165 24.926)" fill="#fff"/><path d="M5.764,11.37H5.748A5.741,5.741,0,0,1,0,5.694,5.759,5.759,0,0,1,5.788,0h.018a5.73,5.73,0,0,1,5.757,5.7,5.731,5.731,0,0,1-5.792,5.668Z" transform="translate(28.389 12.58)" fill="#fff"/></g></g></svg>